<svg width="66" height="63" viewBox="0 0 66 63" fill="none" xmlns="http://www.w3.org/2000/svg">
<path d="M12.2081 21.585C9.02875 21.9841 2.19558 24.0391 2.14512 24.8282C2.08506 25.7673 6.75117 26.4915 9.52017 27.0221C6.66111 27.9002 2.13255 28.3635 2.08752 29.0679C2.03084 29.9544 8.46313 31.8812 11.6704 32.5731L11.2926 27.1354L12.2081 21.585Z" fill="#FF8234"/>
<path d="M29.0481 50.7192L28.6334 57.206M28.6334 57.206L25.5438 58.5115M28.6334 57.206L27.943 60.168M28.6334 57.206L31.5316 58.8943" stroke="#FF8234" stroke-linecap="round"/>
<path d="M38.0298 51.293L37.6151 57.7797M37.6151 57.7797L34.5255 59.0853M37.6151 57.7797L36.9247 60.7417M37.6151 57.7797L40.5133 59.4681" stroke="#FF8234" stroke-linecap="round"/>
<path d="M34.5519 1.97083C20.5072 1.07293 14.4649 10.1765 13.1994 14.8405C12.601 16.9152 11.3149 22.4602 10.9581 28.0423C10.6012 33.6245 13.1569 40.6175 14.5253 42.7762C18.1662 48.5202 22.5078 51.8039 35.4392 52.6307C51.6034 53.6641 61.0493 42.3127 61.0493 42.3127C58.8284 42.0817 56.785 40.634 55.7927 39.9033C58.5104 40.4329 63.3702 37.3851 63.3702 37.3851C63.3702 37.3851 57.0752 36.9826 55.5489 35.8796C53.0898 34.1023 52.209 32.1508 52.2269 25.1457C52.2448 18.1407 52.1077 3.0932 34.5519 1.97083Z" fill="#FFE372"/>
<path d="M40.8665 30.4318C44.1824 30.8108 50.657 32.4606 50.0281 36.0277C49.3993 39.5949 46.2907 39.6299 44.815 39.2016L44.316 39.1697C46.9347 40.0051 51.6285 42.3427 49.4539 45.0094C46.7357 48.3428 38.2849 47.3015 33.9855 44.0205C30.546 41.3957 29.5236 38.057 29.4423 36.7157" stroke="#FF8234" stroke-linecap="round"/>
<ellipse cx="23.9445" cy="20.8325" rx="2.5" ry="3.5" transform="rotate(3.65803 23.9445 20.8325)" fill="black"/>
<circle cx="23.5411" cy="19.3035" r="1" transform="rotate(3.65803 23.5411 19.3035)" fill="white"/>
</svg>
