<svg width="91" height="115" viewBox="0 0 91 115" fill="none" xmlns="http://www.w3.org/2000/svg">
<rect width="90" height="113.39" transform="translate(0.5 0.939453)" fill="#FFFAFA"/>
<circle cx="39.1169" cy="57.0034" r="3.55319" fill="#FFC6C6"/>
<circle cx="52.4414" cy="57.0034" r="3.55319" fill="#FFC6C6"/>
<circle cx="39.561" cy="53.0053" r="1.33245" fill="black"/>
<circle cx="51.9972" cy="53.0053" r="1.33245" fill="black"/>
<path d="M37.3403 48.1201L40.8935 49.8967" stroke="black" stroke-width="1.5" stroke-linecap="round"/>
<path d="M54.218 48.1201L50.6648 49.8967" stroke="black" stroke-width="1.5" stroke-linecap="round"/>
<path d="M45.7791 57.0029H41.7817C41.7817 58.1873 43.038 60.5561 45.7791 60.5561C48.5201 60.5561 49.7764 58.1873 49.7764 57.0029H45.7791Z" fill="#EE5B5C"/>
<path d="M31.5 90.7891V92.2891C32.215 92.2891 32.8306 91.7844 32.9709 91.0832L31.5 90.7891ZM26 89.2891C25.1716 89.2891 24.5 89.9606 24.5 90.7891C24.5 91.6175 25.1716 92.2891 26 92.2891V89.2891ZM32.5291 77.9949L30.0291 90.4949L32.9709 91.0832L35.4709 78.5832L32.5291 77.9949ZM31.5 89.2891H26V92.2891H31.5V89.2891Z" fill="black"/>
<path d="M59.5 90.7891V92.2891C58.785 92.2891 58.1694 91.7844 58.0291 91.0832L59.5 90.7891ZM65 89.2891C65.8284 89.2891 66.5 89.9606 66.5 90.7891C66.5 91.6175 65.8284 92.2891 65 92.2891V89.2891ZM58.4709 77.9949L60.9709 90.4949L58.0291 91.0832L55.5291 78.5832L58.4709 77.9949ZM59.5 89.2891H65V92.2891H59.5V89.2891Z" fill="black"/>
<path d="M45 81.2891C38.7147 81.2891 30.4275 80.9472 25.058 77.4996C17.5175 72.6581 13 63.3043 13 54.2891C13 45.2738 17.5175 35.92 25.058 31.0785C30.4275 27.6309 38.7147 27.2891 45 27.2891" stroke="#C0E9E3" stroke-width="3"/>
<path d="M77.533 66.602C77.7059 67.4122 78.5028 67.9289 79.313 67.7561C80.1232 67.5832 80.6398 66.7863 80.467 65.9761L77.533 66.602ZM71 56.7891C71.3346 56.7891 71.8473 56.9539 72.5242 57.4849C73.1865 58.0044 73.8878 58.7843 74.5655 59.7661C75.9232 61.7332 77.0421 64.3008 77.533 66.602L80.467 65.9761C79.8912 63.2773 78.6102 60.3449 77.0345 58.062C76.2455 56.9188 75.3468 55.8862 74.3758 55.1245C73.4194 54.3742 72.2654 53.7891 71 53.7891V56.7891Z" fill="black"/>
<path d="M13.4785 66.5421C13.3388 67.3586 12.5636 67.9073 11.747 67.7676C10.9305 67.6279 10.3818 66.8526 10.5215 66.0361L13.4785 66.5421ZM19 55.7891C18.8791 55.7891 18.5099 55.8778 17.905 56.4694C17.3311 57.0307 16.7133 57.8844 16.1123 58.9701C14.9127 61.1371 13.9175 63.9765 13.4785 66.5421L10.5215 66.0361C11.0158 63.1471 12.1207 59.9865 13.4877 57.5171C14.17 56.2846 14.9522 55.1611 15.8075 54.3246C16.6317 53.5185 17.7209 52.7891 19 52.7891V55.7891Z" fill="black"/>
<circle cx="45.5" cy="54.2891" r="27" stroke="#C0E9E3" stroke-width="3"/>
<path d="M45.5 32.2891C58.2025 32.2891 68.5 42.0252 68.5 54.0353C68.5 57.3446 67.7182 60.4812 66.3197 63.2891" stroke="#C0E9E3" stroke-width="3" stroke-linecap="round"/>
</svg>
