<svg width="91" height="114" viewBox="0 0 91 114" fill="none" xmlns="http://www.w3.org/2000/svg">
<g clip-path="url(#clip0_213_3886)">
<rect width="90" height="113.39" transform="translate(0.5 0.329102)" fill="#FFD6E5"/>
<path d="M12.7471 78.278C12.747 84.0548 13.3887 87.1559 15.9564 91.4361C17.8817 94.6455 20.4494 96.2501 23.0169 96.892C23.9479 97.1248 26.8298 97.32 30.7191 97.4641C30.7191 97.4641 28.4694 105.902 28.1517 111.444C27.8507 116.693 29.0545 125.565 29.8868 128.132C30.7191 130.7 32.0028 131.983 34.5703 131.983L40.9889 131.983C44.84 131.983 45.4819 131.983 44.84 129.416C44.3487 127.451 44.1982 125.565 44.1982 124.281C44.1982 123.639 44.2441 122.997 44.84 122.997H46.1238C46.7197 122.997 46.7656 123.639 46.7656 124.281C46.7656 125.565 46.615 127.451 46.1238 129.416C45.4819 131.983 46.1238 131.983 49.9749 131.983H56.3935C58.9609 131.984 60.2447 130.7 61.0792 128.132C61.9137 125.565 63.1192 116.693 62.8121 111.444C62.4899 105.938 60.2447 97.5553 60.2447 97.5553C64.1341 97.4189 67.016 97.2024 67.947 96.892C70.4576 96.0552 73.0819 94.6455 75.0074 91.4362C77.5749 87.157 78.8586 84.6967 78.2167 78.2781C77.2113 68.2237 76.181 59.3888 74.3656 54.8502C72.8692 51.1092 69.2307 48.5417 66.6632 47.7898C64.3004 47.0977 56.4395 46.2387 48 46.0304V44.9834L47.1179 38.8085C50.4823 38.0687 53 35.0701 53 31.4834C53 27.3413 49.6421 23.9834 45.5 23.9834C41.3579 23.9834 38 27.3413 38 31.4834C38 35.0701 40.5177 38.0687 43.8821 38.8085L43 44.9834V45.9892C42.7572 45.9915 42.5147 45.9944 42.2726 45.998C34.0461 46.1207 26.6005 47.116 24.3005 47.7897C21.7331 48.5417 18.0946 51.1092 16.5982 54.8501C14.9991 58.8479 12.7471 68.1735 12.7471 78.278Z" stroke="white" stroke-width="6" stroke-linejoin="round"/>
<circle cx="45.5" cy="31.4834" r="7.5" fill="#E1615C"/>
<path d="M45.95 31.4834H50C50 34.1834 48.2 35.9834 45.5 35.9834C42.8 35.9834 41 34.1834 41 31.4834C41 28.7834 42.8 26.9834 45.5 26.9834C46.7919 26.9834 47.8778 27.3955 48.659 28.1212" stroke="#FFE3E3" stroke-width="3" stroke-linecap="round" stroke-linejoin="round"/>
<path d="M43 45.9834L44 37.9834H47L48 45.9834L45.5 46.9834L43 45.9834Z" fill="#E1615C"/>
<path d="M30.719 97.4646C30.719 97.4646 28.4693 105.903 28.1516 111.444C27.8506 116.693 29.0544 125.565 29.8867 128.133C30.719 130.7 32.0028 131.984 34.5702 131.984L40.9888 131.984C44.8399 131.984 45.4818 131.984 44.8399 129.416C44.3486 127.451 44.1981 125.565 44.1981 124.282C44.1981 123.64 44.244 122.998 44.8399 122.998H46.1237C46.7196 122.998 46.7655 123.64 46.7655 124.282C46.7655 125.565 46.615 127.451 46.1237 129.416C45.4818 131.984 46.1237 131.984 49.9748 131.984H56.3934C58.9608 131.984 60.2446 130.7 61.0791 128.133C61.9136 125.565 63.1191 116.693 62.812 111.444C62.4898 105.938 60.2446 97.5557 60.2446 97.5557L44.8399 91.4365L30.719 97.4646Z" fill="#B2B3B5"/>
<path d="M12.7471 78.278C12.747 84.0548 13.3887 87.156 15.9564 91.4361L37.7796 73.4641L42.2726 45.998C34.0461 46.1207 26.6005 47.116 24.3005 47.7897C21.7331 48.5417 18.0946 51.1092 16.5982 54.8501C14.9991 58.8479 12.7471 68.1736 12.7471 78.278Z" fill="#D14037"/>
<path d="M75.0511 91.4361C77.6185 87.1569 78.9022 84.6967 78.2604 78.278C77.2549 68.2237 76.2247 59.3888 74.4092 54.8501C72.9128 51.1091 69.2743 48.5417 66.7069 47.7897C63.8125 46.942 52.6683 45.8437 42.3162 45.998L37.8232 73.4641L16 91.4361C17.9253 94.6455 20.493 96.2501 23.0605 96.892C26.9116 97.8547 64.1394 98.1757 67.9907 96.892C70.5013 96.0551 73.1255 94.6454 75.0511 91.4361Z" fill="#B2B3B5"/>
<path d="M69.5559 87.9235C71.6127 84.4924 72.1269 82.2624 71.6127 77.1159C70.8072 69.0542 70.0701 59.6177 68.5275 56.0152C67.5146 53.6494 65.4424 53.0988 63.3857 52.4126C60.3006 51.3833 30.4777 51.3833 27.3927 52.4126C25.3359 53.0988 23.4008 54.2277 22.2508 56.5298C20.7083 59.6177 19.1657 69.014 19.1656 77.1159C19.1656 81.7477 19.1656 84.4916 21.2226 87.9235C22.7649 90.4968 25.3359 91.5261 27.3927 92.0407C30.4777 92.8127 60.3006 93.07 63.3857 92.0407C65.3969 91.3697 68.0134 90.4968 69.5559 87.9235Z" fill="white"/>
<circle cx="32.713" cy="77.4939" r="4.5613" fill="#F8E6DF"/>
<circle cx="58.3873" cy="77.4939" r="4.5613" fill="#F8E6DF"/>
<circle cx="37.7796" cy="73.5745" r="3.2093" fill="black"/>
<circle cx="38.9831" cy="72.765" r="1.20349" fill="white"/>
<circle cx="53.1842" cy="73.5745" r="3.2093" fill="black"/>
<circle cx="54.3877" cy="72.765" r="1.20349" fill="white"/>
<ellipse cx="45.482" cy="74.8577" rx="0.898603" ry="0.641859" fill="black"/>
<path d="M41.6307 78.0674C41.6307 78.0674 42.401 80.6348 45.4819 80.6348C48.5628 80.6348 49.333 78.0674 49.333 78.0674" stroke="black" stroke-linecap="round"/>
</g>
<defs>
<clipPath id="clip0_213_3886">
<rect width="90" height="113.39" fill="white" transform="translate(0.5 0.329102)"/>
</clipPath>
</defs>
</svg>
