<svg width="91" height="115" viewBox="0 0 91 115" fill="none" xmlns="http://www.w3.org/2000/svg">
<g clip-path="url(#clip0_311_842)">
<rect width="90" height="113.39" transform="translate(0.5 0.71875)" fill="#70B6F7"/>
<mask id="path-1-outside-1_311_842" maskUnits="userSpaceOnUse" x="2" y="43.1777" width="87" height="88" fill="black">
<rect fill="white" x="2" y="43.1777" width="87" height="88"/>
<path fill-rule="evenodd" clip-rule="evenodd" d="M45.5 46.1777C31 46.1777 20 52.6777 16.5 60.1777C15.9499 61.3565 15.4745 62.5843 15.0692 63.8311C14.5606 63.7306 14.0361 63.678 13.5 63.678C12.6813 63.678 11.8896 63.8006 11.1405 64.0293L11.0461 62.4904C12.2525 62.0422 13.0772 60.8452 12.9944 59.4942C12.8929 57.8404 11.4701 56.582 9.81633 56.6835C8.16259 56.7849 6.90419 58.2078 7.00563 59.8615C7.08264 61.117 7.92125 62.1446 9.0443 62.5224L9.19126 64.9184C6.68303 66.4832 5 69.3725 5 72.678C5 77.6486 8.80558 81.678 13.5 81.678C13.739 81.678 13.9756 81.6676 14.2096 81.6471C15.853 85.1902 19.804 90.7429 26.5 92.1777C27.8711 92.4715 29.2805 92.727 30.6907 92.9478C30.4488 93.8703 28.4457 101.631 28.1472 106.837C27.8462 112.086 29.05 120.958 29.8823 123.525C30.7146 126.093 31.9984 127.376 34.5658 127.376L40.9844 127.376C44.8355 127.376 45.4774 127.376 44.8355 124.809C44.3443 122.844 44.1937 120.958 44.1937 119.674C44.1937 119.032 44.2396 118.39 44.8355 118.39H46.1193C46.7152 118.39 46.7611 119.032 46.7611 119.674C46.7611 120.958 46.6106 122.844 46.1193 124.809C45.4774 127.376 46.1193 127.376 49.9704 127.376H56.389C58.9565 127.377 60.2402 126.093 61.0747 123.525C61.9093 120.958 63.1147 112.086 62.8076 106.837C62.4919 101.44 60.3288 93.2808 60.2428 92.9582C61.6752 92.735 63.1074 92.4762 64.5 92.1777C71.1961 90.7429 75.1471 85.1902 76.7905 81.6471C77.0244 81.6676 77.2611 81.678 77.5 81.678C82.1944 81.678 86 77.6486 86 72.678C86 69.3725 84.317 66.4832 81.8087 64.9184L81.9557 62.5224C83.0788 62.1446 83.9174 61.117 83.9944 59.8615C84.0958 58.2078 82.8374 56.7849 81.1837 56.6835C79.5299 56.582 78.1071 57.8404 78.0056 59.4942C77.9228 60.8452 78.7475 62.0422 79.9539 62.4904L79.8595 64.0293C79.1104 63.8006 78.3187 63.678 77.5 63.678C76.9607 63.678 76.4332 63.7312 75.9218 63.8329C75.5182 62.5765 75.0456 61.3467 74.5 60.1777C71 52.6777 60 46.1777 45.5 46.1777Z"/>
</mask>
<path d="M16.5 60.1777L19.2186 61.4464L16.5 60.1777ZM15.0692 63.8311L14.4876 66.7742L17.0992 67.2903L17.9223 64.7586L15.0692 63.8311ZM11.1405 64.0293L8.14611 64.213L8.37894 68.0092L12.0165 66.8986L11.1405 64.0293ZM11.0461 62.4904L10.0013 59.6782L7.9155 60.4531L8.05172 62.674L11.0461 62.4904ZM12.9944 59.4942L15.9887 59.3105L12.9944 59.4942ZM9.81633 56.6835L9.63267 53.6891H9.63266L9.81633 56.6835ZM7.00563 59.8615L10 59.6778L7.00563 59.8615ZM9.0443 62.5224L12.0387 62.3387L11.915 60.3228L10.0007 59.6789L9.0443 62.5224ZM9.19126 64.9184L10.7792 67.4637L12.295 66.518L12.1856 64.7347L9.19126 64.9184ZM14.2096 81.6471L16.9311 80.3848L16.0452 78.475L13.9481 78.6585L14.2096 81.6471ZM26.5 92.1777L27.1286 89.2443L26.5 92.1777ZM30.6907 92.9478L33.5926 93.7089L34.4348 90.4975L31.1549 89.9839L30.6907 92.9478ZM28.1472 106.837L25.1521 106.665L28.1472 106.837ZM29.8823 123.525L32.7361 122.6L29.8823 123.525ZM34.5658 127.376V130.376H34.5658L34.5658 127.376ZM40.9844 127.376V124.376H40.9844L40.9844 127.376ZM44.8355 124.809L41.9251 125.537L44.8355 124.809ZM46.1193 124.809L43.2088 124.081L46.1193 124.809ZM56.389 127.376L56.3892 124.376H56.389V127.376ZM61.0747 123.525L58.2216 122.598L61.0747 123.525ZM62.8076 106.837L59.8127 107.012L62.8076 106.837ZM60.2428 92.9582L59.7809 89.994L56.4851 90.5075L57.344 93.7307L60.2428 92.9582ZM64.5 92.1777L63.8714 89.2443L64.5 92.1777ZM76.7905 81.6471L77.052 78.6586L74.9548 78.475L74.069 80.3848L76.7905 81.6471ZM81.8087 64.9184L78.8144 64.7347L78.705 66.518L80.2208 67.4637L81.8087 64.9184ZM81.9557 62.5224L80.9993 59.6789L79.085 60.3228L78.9613 62.3387L81.9557 62.5224ZM83.9944 59.8615L81 59.6778V59.6778L83.9944 59.8615ZM81.1837 56.6835L81.3673 53.6891L81.1837 56.6835ZM78.0056 59.4942L81 59.6778V59.6778L78.0056 59.4942ZM79.9539 62.4904L82.9483 62.674L83.0845 60.4531L80.9987 59.6782L79.9539 62.4904ZM79.8595 64.0293L78.9835 66.8986L82.6211 68.0092L82.8539 64.213L79.8595 64.0293ZM75.9218 63.8329L73.0655 64.7503L73.8835 67.2968L76.5068 66.7753L75.9218 63.8329ZM74.5 60.1777L77.2186 58.9091L74.5 60.1777ZM19.2186 61.4464C22.0522 55.3743 31.6904 49.1777 45.5 49.1777V43.1777C30.3097 43.1777 17.9478 49.9811 13.7815 58.9091L19.2186 61.4464ZM17.9223 64.7586C18.2938 63.6158 18.7255 62.5031 19.2186 61.4464L13.7815 58.9091C13.1744 60.2099 12.6553 61.5528 12.2162 62.9036L17.9223 64.7586ZM15.6508 60.888C14.952 60.7499 14.2327 60.678 13.5 60.678V66.678C13.8395 66.678 14.1693 66.7113 14.4876 66.7742L15.6508 60.888ZM13.5 60.678C12.3801 60.678 11.2933 60.8459 10.2645 61.1601L12.0165 66.8986C12.486 66.7552 12.9826 66.678 13.5 66.678V60.678ZM14.1349 63.8457L14.0405 62.3067L8.05172 62.674L8.14611 64.213L14.1349 63.8457ZM12.0909 65.3026C14.5015 64.407 16.1548 62.0171 15.9887 59.3105L10 59.6778C10.0002 59.6812 10 59.6822 10.0001 59.6815C10.0002 59.6808 10.0003 59.6797 10.0007 59.6783C10.0015 59.6756 10.0021 59.6749 10.0014 59.676C10.0005 59.6774 9.99914 59.6788 9.99813 59.6797C9.99746 59.6802 9.99847 59.6792 10.0013 59.6782L12.0909 65.3026ZM15.9887 59.3105C15.7859 56.003 12.9402 53.4862 9.63267 53.6891L10 59.6778H10L15.9887 59.3105ZM9.63266 53.6891C6.32517 53.892 3.80838 56.7377 4.01126 60.0452L10 59.6778H10L9.63266 53.6891ZM4.01126 60.0452C4.16556 62.5609 5.84745 64.6122 8.08787 65.3658L10.0007 59.6789C10.0027 59.6796 10.0027 59.6799 10.0014 59.679C9.99998 59.6779 9.99874 59.6767 9.99813 59.6759C9.99773 59.6754 9.99857 59.6763 9.99955 59.6789C10 59.6801 10.0003 59.6811 10.0004 59.6815C10.0005 59.682 10.0002 59.681 10 59.6778L4.01126 60.0452ZM6.04993 62.706L6.19688 65.1021L12.1856 64.7347L12.0387 62.3387L6.04993 62.706ZM7.60333 62.3731C4.20744 64.4917 2 68.3483 2 72.678H8C8 70.3967 9.15862 68.4747 10.7792 67.4637L7.60333 62.3731ZM2 72.678C2 79.1416 6.98948 84.678 13.5 84.678V78.678C10.6217 78.678 8 76.1556 8 72.678H2ZM13.5 84.678C13.8264 84.678 14.1503 84.6638 14.4711 84.6357L13.9481 78.6585C13.8009 78.6714 13.6515 78.678 13.5 78.678V84.678ZM27.1286 89.2443C21.7696 88.096 18.3998 83.5512 16.9311 80.3848L11.4881 82.9095C13.3062 86.8292 17.8383 93.3897 25.8714 95.1111L27.1286 89.2443ZM31.1549 89.9839C29.7911 89.7704 28.4373 89.5247 27.1286 89.2443L25.8714 95.1111C27.3049 95.4183 28.7699 95.6836 30.2266 95.9117L31.1549 89.9839ZM27.7889 92.1867C27.5602 93.0585 25.4706 101.11 25.1521 106.665L31.1423 107.009C31.4207 102.153 33.3373 94.6822 33.5926 93.7089L27.7889 92.1867ZM25.1521 106.665C24.9872 109.542 25.2345 113.269 25.6094 116.529C25.978 119.735 26.5119 122.857 27.0285 124.45L32.7361 122.6C32.4204 121.626 31.9362 119.028 31.5701 115.844C31.2103 112.714 31.0063 109.381 31.1423 107.009L25.1521 106.665ZM27.0285 124.45C27.5232 125.976 28.2755 127.534 29.6166 128.688C31.0333 129.907 32.7506 130.376 34.5658 130.376V124.376C33.8136 124.376 33.6053 124.204 33.5302 124.14C33.3795 124.01 33.0738 123.642 32.7361 122.6L27.0285 124.45ZM34.5658 130.376L40.9844 130.376L40.9844 124.376L34.5658 124.376L34.5658 130.376ZM40.9844 130.376C41.906 130.376 42.7872 130.378 43.504 130.329C44.1309 130.287 45.1603 130.188 46.0833 129.66C46.6185 129.354 47.1274 128.903 47.4983 128.274C47.8575 127.665 47.9935 127.05 48.0358 126.542C48.111 125.64 47.9084 124.731 47.746 124.081L41.9251 125.537C41.9935 125.81 42.0284 125.986 42.0446 126.096C42.062 126.213 42.0456 126.176 42.0565 126.044C42.0687 125.898 42.1195 125.583 42.3307 125.225C42.5538 124.847 42.852 124.596 43.1064 124.451C43.3277 124.324 43.4776 124.299 43.4465 124.305C43.4213 124.311 43.3205 124.328 43.0982 124.343C42.6316 124.375 41.9884 124.376 40.9844 124.376V130.376ZM47.746 124.081C47.3236 122.392 47.1937 120.755 47.1937 119.674H41.1937C41.1937 121.161 41.3649 123.296 41.9251 125.537L47.746 124.081ZM47.1937 119.674C47.1937 119.61 47.1943 119.563 47.1954 119.526C47.196 119.509 47.1966 119.496 47.1971 119.486C47.1976 119.477 47.198 119.473 47.198 119.473C47.1979 119.473 47.1973 119.48 47.1957 119.492C47.1941 119.504 47.1913 119.523 47.1864 119.548C47.1773 119.596 47.1575 119.685 47.1163 119.801C47.0378 120.021 46.8341 120.464 46.3533 120.847C45.8324 121.262 45.2591 121.39 44.8355 121.39V115.39C44.114 115.39 43.3115 115.599 42.6144 116.154C41.9573 116.678 41.6304 117.322 41.4659 117.782C41.1795 118.585 41.1937 119.416 41.1937 119.674H47.1937ZM44.8355 121.39H46.1193V115.39H44.8355V121.39ZM46.1193 121.39C45.6957 121.39 45.1224 121.262 44.6015 120.847C44.1207 120.464 43.917 120.021 43.8385 119.801C43.7973 119.685 43.7776 119.596 43.7684 119.548C43.7635 119.523 43.7607 119.504 43.7591 119.492C43.7575 119.48 43.7569 119.473 43.7569 119.473C43.7568 119.473 43.7572 119.477 43.7577 119.486C43.7583 119.496 43.7589 119.509 43.7594 119.526C43.7605 119.563 43.7611 119.61 43.7611 119.674H49.7611C49.7611 119.416 49.7754 118.585 49.4889 117.782C49.3244 117.322 48.9975 116.678 48.3404 116.154C47.6433 115.599 46.8408 115.39 46.1193 115.39V121.39ZM43.7611 119.674C43.7611 120.755 43.6312 122.392 43.2088 124.081L49.0297 125.537C49.5899 123.296 49.7611 121.161 49.7611 119.674H43.7611ZM43.2088 124.081C43.0464 124.731 42.8438 125.64 42.919 126.542C42.9613 127.05 43.0973 127.665 43.4565 128.274C43.8274 128.903 44.3363 129.354 44.8715 129.66C45.7945 130.188 46.8239 130.287 47.4508 130.329C48.1676 130.378 49.0489 130.376 49.9704 130.376V124.376C48.9664 124.376 48.3232 124.375 47.8567 124.343C47.6343 124.328 47.5336 124.311 47.5083 124.305C47.4773 124.299 47.6272 124.324 47.8484 124.451C48.1028 124.596 48.4011 124.847 48.6241 125.225C48.8353 125.583 48.8861 125.898 48.8983 126.044C48.9092 126.176 48.8928 126.213 48.9102 126.096C48.9264 125.986 48.9613 125.81 49.0297 125.537L43.2088 124.081ZM49.9704 130.376H56.389V124.376H49.9704V130.376ZM56.3889 130.376C58.2044 130.377 59.9213 129.907 61.3381 128.688C62.6791 127.534 63.432 125.978 63.9278 124.453L58.2216 122.598C57.8829 123.64 57.5767 124.009 57.4253 124.139C57.3497 124.204 57.1411 124.376 56.3892 124.376L56.3889 130.376ZM63.9278 124.453C64.4461 122.858 64.981 119.736 65.3496 116.529C65.7245 113.268 65.9709 109.54 65.8025 106.662L59.8127 107.012C59.9514 109.383 59.7486 112.715 59.3889 115.844C59.0229 119.028 58.5379 121.625 58.2216 122.598L63.9278 124.453ZM65.8025 106.662C65.4659 100.908 63.2122 92.4505 63.1416 92.1857L57.344 93.7307C57.4453 94.1111 59.5178 101.972 59.8127 107.012L65.8025 106.662ZM63.8714 89.2443C62.5422 89.5292 61.1663 89.7781 59.7809 89.994L60.7047 95.9224C62.1841 95.6919 63.6726 95.4231 65.1286 95.1111L63.8714 89.2443ZM74.069 80.3848C72.6003 83.5512 69.2305 88.096 63.8714 89.2443L65.1286 95.1111C73.1617 93.3898 77.6939 86.8292 79.512 82.9095L74.069 80.3848ZM76.529 84.6357C76.8498 84.6638 77.1737 84.678 77.5 84.678V78.678C77.3485 78.678 77.1991 78.6714 77.052 78.6586L76.529 84.6357ZM77.5 84.678C84.0105 84.678 89 79.1416 89 72.678H83C83 76.1556 80.3783 78.678 77.5 78.678V84.678ZM89 72.678C89 68.3483 86.7926 64.4917 83.3967 62.3731L80.2208 67.4637C81.8414 68.4747 83 70.3967 83 72.678H89ZM84.8031 65.1021L84.9501 62.706L78.9613 62.3387L78.8144 64.7347L84.8031 65.1021ZM82.9121 65.3658C85.1525 64.6122 86.8344 62.5609 86.9887 60.0452L81 59.6778C80.9998 59.681 80.9995 59.6821 80.9996 59.6816C80.9997 59.6811 81 59.6801 81.0005 59.6789C81.0014 59.6763 81.0023 59.6754 81.0019 59.6759C81.0013 59.6767 81 59.6779 80.9986 59.679C80.9973 59.6799 80.9973 59.6796 80.9993 59.6789L82.9121 65.3658ZM86.9887 60.0452C87.1916 56.7377 84.6748 53.892 81.3673 53.6891L81 59.6778V59.6778L86.9887 60.0452ZM81.3673 53.6891C78.0599 53.4862 75.2141 56.003 75.0113 59.3105L81 59.6778V59.6778L81.3673 53.6891ZM75.0113 59.3105C74.8452 62.0171 76.4985 64.407 78.9091 65.3026L80.9987 59.6782C81.0015 59.6792 81.0025 59.6802 81.0019 59.6797C81.0009 59.6788 80.9995 59.6774 80.9986 59.676C80.9979 59.6749 80.9985 59.6756 80.9993 59.6783C80.9997 59.6797 80.9998 59.6808 80.9999 59.6815C81 59.6822 80.9998 59.6812 81 59.6778L75.0113 59.3105ZM76.9595 62.3067L76.8651 63.8457L82.8539 64.213L82.9483 62.674L76.9595 62.3067ZM80.7355 61.1601C79.7067 60.846 78.6199 60.678 77.5 60.678V66.678C78.0174 66.678 78.514 66.7552 78.9835 66.8986L80.7355 61.1601ZM77.5 60.678C76.7629 60.678 76.0395 60.7508 75.3368 60.8905L76.5068 66.7753C76.8269 66.7117 77.1585 66.678 77.5 66.678V60.678ZM71.7815 61.4464C72.2676 62.4881 72.6957 63.599 73.0655 64.7503L78.7781 62.9154C78.3408 61.554 77.8235 60.2054 77.2186 58.9091L71.7815 61.4464ZM45.5 49.1777C59.3097 49.1777 68.9478 55.3743 71.7815 61.4464L77.2186 58.9091C73.0522 49.9812 60.6904 43.1777 45.5 43.1777V49.1777Z" fill="#2681D7" mask="url(#path-1-outside-1_311_842)"/>
<path d="M45.5001 94.1777C41.7832 94.1777 34.6127 93.746 28 92.4815C26 90.6777 24 82.7191 24 79.6777C24 76.6777 24.5 72.1777 25 70.6777C25.5 69.1777 26 68.1777 28.5 68.1777H45.5001H62.5C65 68.1777 65.5 69.1777 66 70.6777C66.5 72.1777 67 76.6777 67 79.6777C67 82.6777 65 90.6777 63.0001 92.4815C56.3874 93.746 49.2169 94.1777 45.5001 94.1777Z" fill="white"/>
<path d="M30.7146 92.8572C30.7146 92.8572 28.4649 101.295 28.1472 106.837C27.8462 112.086 29.05 120.958 29.8823 123.525C30.7146 126.093 31.9984 127.376 34.5658 127.376L40.9844 127.376C44.8355 127.376 45.4774 127.376 44.8355 124.809C44.3443 122.844 44.1937 120.958 44.1937 119.674C44.1937 119.032 44.2396 118.39 44.8355 118.39H46.1193C46.7152 118.39 46.7611 119.032 46.7611 119.674C46.7611 120.958 46.6106 122.844 46.1193 124.809C45.4774 127.376 46.1193 127.376 49.9704 127.376H56.389C58.9565 127.377 60.2402 126.093 61.0747 123.525C61.9093 120.958 63.1147 112.086 62.8076 106.837C62.4854 101.331 60.2402 92.9483 60.2402 92.9483L44.8355 86.8291L30.7146 92.8572Z" fill="#F8F9FA"/>
<path d="M13.5 81.678C18.1944 81.678 22 77.6486 22 72.678C22 67.7075 18.1944 63.678 13.5 63.678C12.6813 63.678 11.8896 63.8006 11.1405 64.0293L11.0461 62.4904C12.2525 62.0422 13.0772 60.8452 12.9944 59.4942C12.8929 57.8404 11.4701 56.582 9.81633 56.6835C8.16259 56.7849 6.90419 58.2078 7.00563 59.8615C7.08264 61.117 7.92125 62.1446 9.0443 62.5224L9.19126 64.9184C6.68303 66.4832 5 69.3725 5 72.678C5 77.6486 8.80558 81.678 13.5 81.678Z" fill="#E1615C"/>
<path d="M77.5 81.678C72.8056 81.678 69 77.6486 69 72.678C69 67.7075 72.8056 63.678 77.5 63.678C78.3187 63.678 79.1104 63.8006 79.8595 64.0293L79.9539 62.4904C78.7475 62.0422 77.9228 60.8452 78.0056 59.4942C78.1071 57.8404 79.5299 56.582 81.1837 56.6835C82.8374 56.7849 84.0958 58.2078 83.9944 59.8615C83.9174 61.117 83.0788 62.1446 81.9557 62.5224L81.8087 64.9184C84.317 66.4832 86 69.3725 86 72.678C86 77.6486 82.1944 81.678 77.5 81.678Z" fill="#E1615C"/>
<path d="M16.5 60.1777C20 52.6777 31 46.1777 45.5 46.1777C60 46.1777 71 52.6777 74.5 60.1777C78.0001 67.6777 78.5 77.6777 77 81.1777C75.5 84.6777 71.5 90.6777 64.5 92.1777C57.5001 93.6777 49.5001 94.1777 45.5 94.1777C41.5 94.1777 33.5 93.6777 26.5 92.1777C19.5001 90.6777 15.5001 84.6777 14 81.1777C12.5 77.6777 12.9055 67.8803 16.5 60.1777Z" fill="#363637"/>
<path d="M45.5001 94.1777C41.7832 94.1777 34.6127 93.746 28 92.4815C26 90.6777 23 87.9355 23 83.9355C23 79.9355 24.5 73.9355 26 70.6777C26.6613 69.2415 27 68.1777 29.5 68.1777H45.5001H61.5C64 68.1777 64.3387 69.2415 65 70.6777C66.5 73.9355 68 79.9355 68 83.9355C68 87.9355 65 90.6777 63.0001 92.4815C56.3874 93.746 49.2169 94.1777 45.5001 94.1777Z" fill="white"/>
<path d="M36 94.6777H55V103.678C55 104.782 54.1046 105.678 53 105.678H38C36.8954 105.678 36 104.782 36 103.678V94.6777Z" fill="#363637"/>
<circle cx="33" cy="99.6777" r="2" fill="#B2B3B5"/>
<circle cx="58" cy="99.6777" r="2" fill="#B2B3B5"/>
<circle cx="32" cy="83.9355" r="6" fill="#F8E6DF"/>
<circle cx="59" cy="83.9355" r="6" fill="#F8E6DF"/>
<circle cx="38.3123" cy="78.8597" r="2.92414" fill="black"/>
<circle cx="39.4089" cy="78.1219" r="1.09655" fill="white"/>
<circle cx="52.3482" cy="78.8597" r="2.92414" fill="black"/>
<circle cx="53.4447" cy="78.1219" r="1.09655" fill="white"/>
<path d="M48.75 82.9356V82.6856H48.5H42.5H42.25V82.9356C42.25 83.998 42.4005 85.054 42.8865 85.8512C43.3856 86.6699 44.2202 87.1855 45.5 87.1855C46.7798 87.1855 47.6144 86.6699 48.1135 85.8512C48.5995 85.054 48.75 83.998 48.75 82.9356Z" fill="#E1615C" stroke="#E1615C" stroke-width="0.5" stroke-linecap="round"/>
<path fill-rule="evenodd" clip-rule="evenodd" d="M47.6166 86.1046C47.1553 86.62 46.4767 86.9355 45.5 86.9355C44.5233 86.9355 43.8447 86.62 43.3834 86.1046C43.826 85.4022 44.6085 84.9355 45.5 84.9355C46.3915 84.9355 47.174 85.4022 47.6166 86.1046Z" fill="#D55748"/>
<path fill-rule="evenodd" clip-rule="evenodd" d="M47.5 82.9355V83.2187C47.5 83.771 47.0523 84.2187 46.5 84.2187H44.5C43.9477 84.2187 43.5 83.771 43.5 83.2187V82.9355H47.5Z" fill="white"/>
<path d="M42.4818 65.9355C42.4818 68.8981 39.6125 71.4355 35.8909 71.4355C32.1693 71.4355 29.3 68.8981 29.3 65.9355C29.3 62.973 32.1693 60.4355 35.8909 60.4355C39.6125 60.4355 42.4818 62.973 42.4818 65.9355Z" fill="white" fill-opacity="0.4" stroke="#E1615C"/>
<path d="M42.5 66.4355C42.8333 65.9355 43.9 64.9355 45.5 64.9355C47.1 64.9355 48.1667 65.9355 48.5 66.4355" stroke="#E1615C" stroke-linecap="round"/>
<path d="M61.6818 65.9355C61.6818 68.8981 58.8125 71.4355 55.0909 71.4355C51.3693 71.4355 48.5 68.8981 48.5 65.9355C48.5 62.973 51.3693 60.4355 55.0909 60.4355C58.8125 60.4355 61.6818 62.973 61.6818 65.9355Z" fill="white" fill-opacity="0.4" stroke="#E1615C"/>
</g>
<defs>
<clipPath id="clip0_311_842">
<rect width="90" height="113.39" fill="white" transform="translate(0.5 0.71875)"/>
</clipPath>
</defs>
</svg>
