<svg width="323" height="5" viewBox="0 0 323 5" fill="none" xmlns="http://www.w3.org/2000/svg">
<path d="M1 3.17748C10.2784 4.66204 20.2659 3.61298 29.7186 3.61298C37.3882 3.61298 45.0578 3.61298 52.7273 3.61298C66.6955 3.61298 80.6636 3.61298 94.6318 3.61298C98.6299 3.61298 102.427 2.30649 106.39 2.30649C109.439 2.30649 112.487 2.30649 115.536 2.30649C122.097 2.30649 128.613 1.87099 135.157 1.87099C149.402 1.87099 163.562 1.4355 177.812 1.4355C192.435 1.4355 207.135 1 221.797 1C228.934 1 236.071 1 243.209 1C249.705 1 256.03 2.30649 262.516 2.30649C275.194 2.30649 287.855 3.17748 300.598 3.17748C307.874 3.17748 314.708 2.30649 321.961 2.30649" stroke="black" stroke-width="1.5" stroke-linecap="round"/>
</svg>
