<svg width="323" height="5" viewBox="0 0 323 5" fill="none" xmlns="http://www.w3.org/2000/svg">
<path d="M321.961 1.79517C312.683 0.31062 302.695 1.35968 293.243 1.35968C285.573 1.35968 277.903 1.35968 270.234 1.35968C256.266 1.35968 242.298 1.35968 228.329 1.35968C224.331 1.35968 220.535 2.66617 216.571 2.66617C213.522 2.66617 210.474 2.66617 207.426 2.66617C200.864 2.66617 194.348 3.10166 187.804 3.10166C173.559 3.10166 159.399 3.53716 145.149 3.53716C130.526 3.53716 115.826 3.97266 101.164 3.97266C94.027 3.97266 86.8897 3.97266 79.7524 3.97266C73.2558 3.97266 66.9309 2.66617 60.4454 2.66617C47.7671 2.66617 35.1064 1.79517 22.3636 1.79517C15.0869 1.79517 8.25316 2.66617 1.00006 2.66617" stroke="black" stroke-width="1.5" stroke-linecap="round"/>
</svg>
