<svg width="323" height="5" viewBox="0 0 323 5" fill="none" xmlns="http://www.w3.org/2000/svg">
<path d="M1 1.79517C10.2784 0.31062 20.2659 1.35968 29.7186 1.35968C37.3882 1.35968 45.0578 1.35968 52.7273 1.35968C66.6955 1.35968 80.6636 1.35968 94.6318 1.35968C98.6299 1.35968 102.427 2.66617 106.39 2.66617C109.439 2.66617 112.487 2.66617 115.536 2.66617C122.097 2.66617 128.613 3.10166 135.157 3.10166C149.402 3.10166 163.562 3.53716 177.812 3.53716C192.435 3.53716 207.135 3.97266 221.797 3.97266C228.934 3.97266 236.071 3.97266 243.209 3.97266C249.705 3.97266 256.03 2.66617 262.516 2.66617C275.194 2.66617 287.855 1.79517 300.598 1.79517C307.874 1.79517 314.708 2.66617 321.961 2.66617" stroke="black" stroke-width="1.5" stroke-linecap="round"/>
</svg>
