<svg width="19" height="18" viewBox="0 0 19 18" fill="none" xmlns="http://www.w3.org/2000/svg">
<path d="M1.5 8.90857V14.9086C1.5 16.0131 2.39543 16.9086 3.5 16.9086H15.5C16.6046 16.9086 17.5 16.0131 17.5 14.9086V8.40857M1.5 8.90857V2.90857C1.5 1.804 2.39543 0.908569 3.5 0.908569H15.5C16.6046 0.908569 17.5 1.804 17.5 2.90857V8.40857M1.5 8.90857L3.02809 7.38048C3.83131 6.57726 5.14143 6.60345 5.91191 7.43814L8.19231 9.90857M10.5 12.4086L8.19231 9.90857M8.19231 9.90857L12.0056 5.59788C12.8003 4.69951 14.2016 4.69783 14.9984 5.5943L17.5 8.40857" stroke="black" stroke-width="1.5" stroke-linecap="round"/>
</svg>
