<svg width="80" height="82" viewBox="0 0 80 82" fill="none" xmlns="http://www.w3.org/2000/svg">
<path fill-rule="evenodd" clip-rule="evenodd" d="M51.8653 4.21468C51.2085 0.948246 47.0801 -0.130548 44.9093 2.39701L38.8463 9.45649L31.7429 17.7273L9.02415 12.9791C5.73094 12.2908 3.11086 15.7282 4.64731 18.7212L14.5999 38.1092L1.51882 61.4781C-0.112638 64.3926 2.33531 67.9048 5.63437 67.3827L29.4833 63.6089L44.6863 79.3792C46.9015 81.6771 50.7835 80.5824 51.4719 77.4658L56.3966 55.171L77.105 45.7711C80.0548 44.4322 80.2727 40.3256 77.4813 38.6819L56.286 26.2019L51.8653 4.21468ZM42.9221 12.3849L47.3673 7.20919L51.4722 27.6254C51.6963 28.7402 52.3843 29.7069 53.3641 30.2838L73.2856 42.0138L53.8746 50.8248C52.7282 51.3451 51.8937 52.3749 51.6221 53.6043L46.9918 74.5666L32.7214 59.7636C31.8149 58.8233 30.5065 58.3848 29.2165 58.5889L6.88838 62.1221L19.2248 40.0835C19.8793 38.9142 19.9049 37.495 19.293 36.3029L10.0524 18.3021L31.2983 22.7424C32.116 22.9133 32.9498 22.8215 33.6915 22.504L30.3483 31.2313L35.4776 31.8184L42.9221 12.3849ZM44.1794 32.8145L49.1473 33.3831C49.2295 32.5873 49.2903 31.7989 49.3239 31.0276C49.4261 28.6786 49.287 26.2879 48.5956 24.277C48.1467 22.9713 46.7243 22.2767 45.4186 22.7256C44.1129 23.1745 43.4183 24.5969 43.8673 25.9026C44.2603 27.0459 44.4201 28.7086 44.3286 30.8102C44.3004 31.4575 44.2494 32.1279 44.1794 32.8145Z" fill="url(#paint0_radial_210_3418)"/>
<path d="M44.9093 2.39701L45.2886 2.72277L45.2886 2.72277L44.9093 2.39701ZM51.8653 4.21468L52.3554 4.11613L51.8653 4.21468ZM38.8463 9.45649L38.4669 9.13073L38.8463 9.45649ZM31.7429 17.7273L31.6406 18.2167L32.1222 18.0531L31.7429 17.7273ZM9.02415 12.9791L8.92186 13.4685L9.02415 12.9791ZM4.64731 18.7212L4.20249 18.9496L4.64731 18.7212ZM14.5999 38.1092L15.0362 38.3534L15.0447 37.8809L14.5999 38.1092ZM1.51882 61.4781L1.08252 61.2339H1.08252L1.51882 61.4781ZM5.63437 67.3827L5.55622 66.8889H5.55622L5.63437 67.3827ZM29.4833 63.6089L29.8433 63.2619L29.4052 63.1151L29.4833 63.6089ZM44.6863 79.3792L44.3264 79.7263L44.6863 79.3792ZM51.4719 77.4658L50.9837 77.358L51.4719 77.4658ZM56.3966 55.171L56.1899 54.7157L55.9083 55.0632L56.3966 55.171ZM77.105 45.7711L76.8984 45.3158L77.105 45.7711ZM77.4813 38.6819L77.2276 39.1128L77.4813 38.6819ZM56.286 26.2019L55.7958 26.3004L56.0323 26.6327L56.286 26.2019ZM47.3673 7.20919L47.8575 7.11064L46.988 6.88343L47.3673 7.20919ZM42.9221 12.3849L42.5428 12.0592L42.4552 12.2061L42.9221 12.3849ZM51.4722 27.6254L51.9624 27.5268V27.5268L51.4722 27.6254ZM53.3641 30.2838L53.6178 29.8529L53.3641 30.2838ZM73.2856 42.0138L73.4923 42.4691L73.5393 41.583L73.2856 42.0138ZM53.8746 50.8248L53.668 50.3695L53.8746 50.8248ZM51.6221 53.6043L52.1103 53.7122L51.6221 53.6043ZM46.9918 74.5666L46.6318 74.9136L47.48 74.6744L46.9918 74.5666ZM32.7214 59.7636L33.0813 59.4166L32.7214 59.7636ZM29.2165 58.5889L29.2946 59.0828H29.2946L29.2165 58.5889ZM6.88838 62.1221L6.45208 61.8779L6.96653 62.6159L6.88838 62.1221ZM19.2248 40.0835L18.7885 39.8392L19.2248 40.0835ZM19.293 36.3029L18.8481 36.5313L19.293 36.3029ZM10.0524 18.3021L10.1547 17.8126L9.60762 18.5304L10.0524 18.3021ZM31.2983 22.7424L31.4006 22.253L31.2983 22.7424ZM33.6915 22.504L34.1584 22.6828L33.4947 22.0443L33.6915 22.504ZM30.3483 31.2313L29.8814 31.0524L30.2914 31.728L30.3483 31.2313ZM35.4776 31.8184L35.4208 32.3152L35.9446 31.9973L35.4776 31.8184ZM44.1794 32.8145L43.682 32.7637L44.1225 33.3112L44.1794 32.8145ZM49.1473 33.3831L49.0904 33.8799L49.6446 33.4345L49.1473 33.3831ZM49.3239 31.0276L49.8234 31.0494L49.3239 31.0276ZM48.5956 24.277L48.1228 24.4395L48.5956 24.277ZM45.4186 22.7256L45.5812 23.1985L45.4186 22.7256ZM43.8673 25.9026L43.3944 26.0652L43.8673 25.9026ZM44.3286 30.8102L43.8291 30.7885L44.3286 30.8102ZM45.2886 2.72277C47.188 0.511163 50.8004 1.45511 51.3751 4.31324L52.3554 4.11613C51.6166 0.441382 46.9721 -0.77226 44.53 2.07124L45.2886 2.72277ZM39.2256 9.78226L45.2886 2.72277L44.53 2.07124L38.4669 9.13073L39.2256 9.78226ZM32.1222 18.0531L39.2256 9.78226L38.4669 9.13073L31.3636 17.4015L32.1222 18.0531ZM8.92186 13.4685L31.6406 18.2167L31.8452 17.2379L9.12644 12.4897L8.92186 13.4685ZM5.09212 18.4929C3.74774 15.874 6.0403 12.8663 8.92186 13.4685L9.12644 12.4897C5.42158 11.7154 2.47399 15.5824 4.20249 18.9496L5.09212 18.4929ZM15.0447 37.8809L5.09212 18.4929L4.20249 18.9496L14.1551 38.3376L15.0447 37.8809ZM1.95511 61.7223L15.0362 38.3534L14.1636 37.865L1.08252 61.2339L1.95511 61.7223ZM5.55622 66.8889C2.66955 67.3457 0.52759 64.2725 1.95511 61.7223L1.08252 61.2339C-0.752866 64.5127 2.00108 68.4639 5.71251 67.8766L5.55622 66.8889ZM29.4052 63.1151L5.55622 66.8889L5.71251 67.8766L29.5614 64.1028L29.4052 63.1151ZM45.0463 79.0322L29.8433 63.2619L29.1233 63.9559L44.3264 79.7263L45.0463 79.0322ZM50.9837 77.358C50.3813 80.085 46.9846 81.0428 45.0463 79.0322L44.3264 79.7263C46.8184 82.3113 51.1857 81.0799 51.9602 77.5737L50.9837 77.358ZM55.9083 55.0632L50.9837 77.358L51.9602 77.5737L56.8848 55.2789L55.9083 55.0632ZM76.8984 45.3158L56.1899 54.7157L56.6032 55.6263L77.3117 46.2264L76.8984 45.3158ZM77.2276 39.1128C79.6701 40.551 79.4794 44.1443 76.8984 45.3158L77.3117 46.2264C80.6301 44.7201 80.8754 40.1002 77.735 38.2511L77.2276 39.1128ZM56.0323 26.6327L77.2276 39.1128L77.735 38.2511L56.5397 25.771L56.0323 26.6327ZM51.3751 4.31324L55.7958 26.3004L56.7762 26.1033L52.3554 4.11613L51.3751 4.31324ZM46.988 6.88343L42.5428 12.0592L43.3014 12.7107L47.7466 7.53496L46.988 6.88343ZM51.9624 27.5268L47.8575 7.11064L46.8771 7.30775L50.982 27.7239L51.9624 27.5268ZM53.6178 29.8529C52.7605 29.3481 52.1585 28.5023 51.9624 27.5268L50.982 27.7239C51.2341 28.9781 52.0081 30.0656 53.1104 30.7146L53.6178 29.8529ZM73.5393 41.583L53.6178 29.8529L53.1104 30.7146L73.0319 42.4447L73.5393 41.583ZM54.0813 51.28L73.4923 42.4691L73.0789 41.5585L53.668 50.3695L54.0813 51.28ZM52.1103 53.7122C52.3479 52.6365 53.0782 51.7354 54.0813 51.28L53.668 50.3695C52.3782 50.9549 51.4394 52.1134 51.1339 53.4965L52.1103 53.7122ZM47.48 74.6744L52.1103 53.7122L51.1339 53.4965L46.5036 74.4587L47.48 74.6744ZM32.3614 60.1106L46.6318 74.9136L47.3518 74.2195L33.0813 59.4166L32.3614 60.1106ZM29.2946 59.0828C30.4234 58.9042 31.5683 59.2879 32.3614 60.1106L33.0813 59.4166C32.0616 58.3588 30.5896 57.8654 29.1383 58.0951L29.2946 59.0828ZM6.96653 62.6159L29.2946 59.0828L29.1383 58.0951L6.81023 61.6282L6.96653 62.6159ZM18.7885 39.8392L6.45208 61.8779L7.32468 62.3663L19.6611 40.3277L18.7885 39.8392ZM18.8481 36.5313C19.3836 37.5743 19.3612 38.8162 18.7885 39.8392L19.6611 40.3277C20.3974 39.0123 20.4262 37.4156 19.7378 36.0746L18.8481 36.5313ZM9.60762 18.5304L18.8481 36.5313L19.7378 36.0746L10.4973 18.0737L9.60762 18.5304ZM31.4006 22.253L10.1547 17.8126L9.95015 18.7915L31.196 23.2318L31.4006 22.253ZM33.4947 22.0443C32.8455 22.3223 32.116 22.4025 31.4006 22.253L31.196 23.2318C32.1159 23.4241 33.0541 23.3208 33.8883 22.9636L33.4947 22.0443ZM30.8152 31.4101L34.1584 22.6828L33.2246 22.3251L29.8814 31.0524L30.8152 31.4101ZM30.2914 31.728L35.4208 32.3152L35.5345 31.3216L30.4052 30.7345L30.2914 31.728ZM42.4552 12.2061L35.0107 31.6395L35.9446 31.9973L43.389 12.5638L42.4552 12.2061ZM44.1225 33.3112L49.0904 33.8799L49.2041 32.8864L44.2363 32.3177L44.1225 33.3112ZM48.8243 31.0059C48.7913 31.7659 48.7313 32.5443 48.6499 33.3317L49.6446 33.4345C49.7277 32.6303 49.7893 31.8319 49.8234 31.0494L48.8243 31.0059ZM48.1228 24.4395C48.7843 26.3638 48.9255 28.6817 48.8243 31.0059L49.8234 31.0494C49.9267 28.6754 49.7896 26.212 49.0684 24.1144L48.1228 24.4395ZM45.5812 23.1985C46.6257 22.8393 47.7636 23.395 48.1228 24.4395L49.0684 24.1144C48.5297 22.5476 46.8229 21.7141 45.256 22.2528L45.5812 23.1985ZM44.3401 25.7401C43.981 24.6955 44.5366 23.5576 45.5812 23.1985L45.256 22.2528C43.6892 22.7915 42.8557 24.4984 43.3944 26.0652L44.3401 25.7401ZM44.8281 30.832C44.9207 28.7058 44.763 26.9702 44.3401 25.7401L43.3944 26.0652C43.7576 27.1216 43.9195 28.7115 43.8291 30.7885L44.8281 30.832ZM44.6768 32.8652C44.7477 32.1704 44.7995 31.4903 44.8281 30.832L43.8291 30.7885C43.8014 31.4247 43.7512 32.0853 43.682 32.7637L44.6768 32.8652Z" fill="black"/>
<path d="M42.9194 12.416L33.4194 22.416" stroke="black" stroke-linecap="square" stroke-linejoin="bevel"/>
<defs>
<radialGradient id="paint0_radial_210_3418" cx="0" cy="0" r="1" gradientUnits="userSpaceOnUse" gradientTransform="translate(39.9194 42.416) rotate(37.4762) scale(37.8021 38.5815)">
<stop offset="0.33138" stop-color="#B6B6B6"/>
<stop offset="0.99638" stop-color="#E2E2E2"/>
</radialGradient>
</defs>
</svg>
